<svg id="svg" version="1.1" width="1920" height="1451" viewBox="0 0 1920 1451" xmlns="http://www.w3.org/2000/svg"><path d="M682.589 3.077 C 679.431 6.830,679.222 11.969,681.656 26.000 C 683.917 39.033,683.934 59.607,681.690 67.702 C 678.102 80.641,672.743 89.925,662.604 100.764 C 656.725 107.049,641.602 118.000,638.802 118.000 C 637.991 118.000,634.493 115.725,631.028 112.944 C 606.533 93.286,578.413 93.122,559.368 112.528 C 553.012 119.004,545.705 131.726,544.426 138.540 C 544.069 140.443,543.377 142.000,542.889 142.000 C 542.400 142.000,542.000 141.608,542.000 141.128 C 542.000 138.888,531.035 123.832,525.114 117.942 C 513.842 106.730,501.914 99.714,484.996 94.346 C 477.392 91.933,474.790 91.628,460.204 91.438 C 447.074 91.268,443.574 90.924,442.188 89.671 C 441.243 88.815,437.551 86.766,433.984 85.117 C 416.771 77.162,389.892 76.902,371.168 84.510 C 365.934 86.637,363.448 87.000,354.130 87.000 C 336.244 87.000,318.279 91.330,301.603 99.662 C 290.720 105.099,285.825 108.416,278.012 115.650 C 271.311 121.853,271.464 121.859,265.567 115.188 C 263.954 113.363,260.579 110.662,258.067 109.185 C 253.891 106.730,252.597 106.500,242.947 106.500 C 232.775 106.500,232.121 106.635,224.838 110.235 C 220.180 112.537,215.687 115.701,213.121 118.485 C 208.386 123.621,206.289 124.008,196.703 121.511 C 183.002 117.942,172.071 109.631,166.740 98.730 C 161.850 88.728,160.545 81.886,160.593 66.500 C 160.639 51.728,161.574 45.143,165.597 31.261 C 166.956 26.571,167.788 22.457,167.446 22.117 C 167.104 21.778,163.958 21.541,160.455 21.592 C 142.847 21.845,124.232 40.104,114.057 67.104 C 102.175 98.637,101.545 138.848,112.511 165.836 C 118.442 180.432,129.658 194.416,141.655 202.175 C 145.145 204.432,147.999 206.328,147.997 206.389 C 147.996 206.450,141.134 206.546,132.747 206.602 C 107.852 206.769,83.848 212.768,57.440 225.424 C 35.850 235.771,21.635 246.654,11.035 260.953 C 3.607 270.973,0.655 278.086,0.570 286.173 C 0.494 293.461,2.394 297.395,7.090 299.666 C 8.415 300.307,16.273 301.292,24.551 301.855 C 44.245 303.195,48.108 304.626,59.477 314.797 C 82.011 334.954,95.042 342.906,112.500 347.153 C 121.599 349.367,140.773 350.223,153.840 349.000 L 159.180 348.500 160.575 352.500 C 162.450 357.877,162.554 357.656,157.792 358.417 C 155.478 358.787,151.562 359.985,149.089 361.079 L 144.594 363.067 139.047 360.784 C 131.027 357.482,117.708 357.559,110.000 360.952 C 101.644 364.631,93.356 370.580,84.940 378.940 C 66.630 397.128,54.543 419.308,53.280 437.040 C 52.800 443.775,53.029 445.186,55.422 450.243 C 56.895 453.357,61.158 459.189,64.895 463.202 L 71.689 470.500 72.330 482.000 C 73.067 495.237,76.585 513.491,81.007 527.022 L 84.071 536.399 80.286 543.858 C 76.612 551.094,76.500 551.631,76.500 561.908 C 76.500 571.811,76.710 572.929,79.723 579.087 C 87.135 594.234,103.265 604.699,126.000 609.112 C 133.377 610.544,165.664 610.692,173.500 609.330 L 178.500 608.461 183.035 617.606 C 188.564 628.756,196.887 640.021,206.967 650.000 C 213.672 656.638,224.430 665.462,228.794 667.905 C 230.170 668.674,230.156 669.383,228.665 674.698 C 226.598 682.064,226.565 686.910,228.531 694.458 C 233.359 712.994,248.911 727.289,270.000 732.576 C 275.987 734.077,277.000 734.751,282.842 741.115 C 300.651 760.517,332.671 778.070,362.000 784.509 C 373.800 787.100,400.126 787.619,413.514 785.525 C 425.856 783.595,444.354 777.869,454.030 772.985 C 469.081 765.387,483.622 753.542,494.169 740.288 C 498.952 734.277,499.474 733.896,500.324 735.799 C 500.981 737.273,500.566 740.301,498.897 746.190 C 496.868 753.351,496.543 756.713,496.544 770.500 C 496.546 785.184,496.762 787.117,499.166 794.000 C 500.606 798.125,502.330 804.200,502.995 807.500 C 503.661 810.800,505.135 815.750,506.272 818.500 C 508.365 823.565,516.516 835.966,517.801 836.041 C 518.185 836.063,519.971 837.340,521.769 838.879 L 525.038 841.677 517.269 845.483 C 507.255 850.387,494.507 862.944,488.239 874.076 C 482.906 883.548,477.187 899.362,472.535 917.500 C 462.468 956.755,459.609 964.109,452.521 968.985 C 440.298 977.395,431.587 996.278,434.018 1009.095 C 436.029 1019.700,440.520 1025.578,452.795 1033.675 C 463.092 1040.467,477.198 1046.961,489.000 1050.341 C 498.040 1052.930,514.444 1056.000,519.241 1056.000 C 521.176 1056.000,522.906 1056.923,524.482 1058.796 C 527.812 1062.753,535.647 1066.752,541.628 1067.545 C 550.316 1068.698,557.359 1066.000,564.361 1058.840 C 570.167 1052.902,570.335 1052.815,582.361 1049.504 C 595.258 1045.954,612.012 1039.323,620.863 1034.265 L 626.225 1031.201 633.551 1039.850 C 637.579 1044.608,642.636 1050.508,644.788 1052.962 L 648.700 1057.423 642.765 1068.462 C 639.501 1074.533,624.092 1105.150,608.522 1136.500 C 579.051 1195.841,568.600 1215.992,566.652 1217.235 C 566.018 1217.639,562.575 1218.933,559.000 1220.111 C 542.860 1225.430,533.674 1230.985,530.241 1237.500 C 527.774 1242.182,528.234 1253.948,531.231 1262.837 L 533.706 1270.174 529.269 1276.791 C 517.110 1294.923,504.000 1331.093,504.000 1346.508 C 504.000 1353.269,506.072 1356.399,512.693 1359.638 C 517.856 1362.164,519.674 1362.479,531.209 1362.838 L 544.000 1363.236 544.035 1367.368 C 544.117 1376.841,550.258 1381.141,569.400 1385.126 C 577.071 1386.723,583.246 1387.239,595.075 1387.272 L 610.650 1387.314 608.833 1394.907 C 607.833 1399.083,607.012 1405.522,607.008 1409.215 C 607.001 1415.307,607.288 1416.259,610.106 1419.468 C 614.384 1424.340,621.502 1426.317,635.134 1426.420 L 645.768 1426.500 646.331 1431.205 C 646.641 1433.793,647.647 1437.058,648.566 1438.461 C 650.859 1441.960,660.795 1446.484,671.000 1448.674 C 683.026 1451.256,712.989 1451.256,724.976 1448.673 C 748.569 1443.591,769.623 1434.297,779.500 1424.605 C 785.543 1418.675,785.781 1418.243,787.824 1409.500 C 791.067 1395.615,792.992 1382.278,792.996 1373.653 L 793.000 1365.806 797.950 1361.355 C 805.274 1354.770,807.681 1348.892,808.489 1335.615 C 808.854 1329.629,809.593 1323.554,810.132 1322.115 C 810.671 1320.677,813.336 1317.237,816.054 1314.470 C 823.760 1306.629,825.095 1301.714,826.098 1277.500 C 827.133 1252.513,828.537 1238.147,831.583 1221.368 C 835.086 1202.079,838.061 1194.699,848.361 1179.750 C 853.193 1172.737,857.451 1167.011,857.823 1167.024 C 858.196 1167.038,860.350 1167.476,862.611 1167.998 C 877.735 1171.491,916.129 1177.111,946.000 1180.205 C 965.908 1182.267,1038.509 1181.918,1057.395 1179.670 L 1072.290 1177.896 1075.345 1181.698 C 1077.026 1183.789,1080.561 1187.702,1083.200 1190.393 C 1085.840 1193.084,1088.000 1195.494,1088.000 1195.749 C 1088.000 1196.004,1086.653 1197.912,1085.008 1199.990 C 1080.372 1205.844,1077.021 1213.881,1077.010 1219.173 C 1076.985 1230.869,1091.758 1237.300,1106.750 1232.121 C 1109.638 1231.123,1112.000 1230.427,1112.000 1230.574 C 1112.000 1230.721,1109.596 1234.364,1106.658 1238.670 C 1103.720 1242.977,1100.262 1248.412,1098.974 1250.750 C 1096.888 1254.536,1096.236 1255.000,1093.012 1255.000 C 1087.936 1255.000,1079.917 1259.282,1074.998 1264.618 C 1070.039 1269.997,1065.227 1279.927,1064.877 1285.500 C 1064.739 1287.700,1063.149 1292.498,1061.345 1296.161 C 1049.048 1321.129,1038.128 1351.481,1037.297 1363.000 C 1036.781 1370.161,1036.879 1370.622,1039.467 1373.202 C 1042.938 1376.663,1048.155 1377.457,1062.444 1376.699 L 1073.500 1376.112 1073.627 1380.611 C 1073.795 1386.540,1076.631 1389.497,1084.475 1391.920 C 1095.444 1395.308,1108.435 1396.309,1133.325 1395.684 C 1149.614 1395.276,1159.620 1394.535,1167.000 1393.190 C 1172.775 1392.137,1177.640 1391.391,1177.810 1391.532 C 1177.981 1391.672,1176.995 1395.998,1175.619 1401.144 C 1168.996 1425.912,1171.486 1430.643,1191.000 1430.365 C 1196.225 1430.290,1202.412 1429.775,1204.750 1429.221 C 1208.741 1428.274,1209.000 1428.343,1209.006 1430.356 C 1209.009 1431.535,1209.480 1434.189,1210.054 1436.254 C 1212.182 1443.918,1224.185 1446.911,1253.006 1446.965 C 1281.931 1447.020,1305.441 1443.608,1326.390 1436.316 C 1347.821 1428.857,1353.874 1424.697,1356.502 1415.622 C 1358.676 1408.112,1360.826 1392.625,1362.160 1374.858 L 1363.334 1359.217 1367.417 1357.994 C 1374.530 1355.864,1384.354 1350.325,1388.675 1346.009 C 1394.901 1339.788,1396.512 1335.838,1396.430 1327.000 C 1396.359 1319.328,1395.136 1315.570,1389.818 1306.688 L 1387.537 1302.877 1393.789 1290.525 C 1402.331 1273.651,1414.082 1254.292,1434.475 1223.500 C 1455.275 1192.093,1476.932 1161.681,1489.909 1145.658 C 1502.989 1129.508,1505.576 1125.769,1510.075 1116.500 C 1520.637 1094.740,1518.727 1077.176,1504.371 1064.056 C 1495.389 1055.847,1476.594 1047.961,1459.000 1045.021 C 1455.425 1044.423,1451.272 1043.690,1449.771 1043.392 L 1447.042 1042.850 1449.391 1038.175 C 1457.485 1022.065,1467.959 987.959,1473.912 958.327 C 1483.766 909.273,1485.265 865.133,1478.441 824.936 C 1477.867 821.554,1477.974 821.620,1485.179 829.063 C 1494.435 838.626,1501.582 848.744,1521.161 880.008 C 1541.355 912.250,1551.710 926.365,1566.455 941.743 C 1585.332 961.430,1603.603 974.447,1624.938 983.407 C 1657.920 997.258,1698.158 1000.658,1736.500 992.835 C 1742.000 991.713,1747.631 990.580,1749.013 990.319 C 1751.199 989.905,1751.829 990.470,1753.864 994.671 C 1761.008 1009.421,1779.504 1024.069,1799.000 1030.416 C 1815.078 1035.651,1825.524 1036.244,1844.500 1033.000 C 1872.176 1028.268,1892.558 1032.851,1908.657 1047.426 C 1912.044 1050.492,1915.064 1053.000,1915.369 1053.000 C 1915.673 1053.000,1916.667 1050.638,1917.578 1047.750 C 1920.114 1039.703,1920.663 1015.838,1918.568 1004.688 C 1913.298 976.645,1898.470 953.769,1874.525 936.740 C 1865.532 930.344,1848.028 921.876,1836.500 918.344 C 1828.312 915.835,1826.057 915.582,1811.500 915.545 C 1796.588 915.507,1795.001 915.686,1788.165 918.181 C 1778.067 921.867,1770.913 926.390,1763.517 933.762 C 1757.139 940.120,1751.316 949.706,1748.932 957.772 C 1748.062 960.720,1747.023 962.182,1745.585 962.486 C 1730.026 965.777,1702.113 966.061,1685.000 963.101 C 1641.011 955.493,1604.888 930.625,1573.004 886.000 C 1564.589 874.221,1557.623 862.730,1547.546 844.000 C 1510.073 774.351,1455.568 715.250,1394.200 677.724 C 1389.085 674.596,1381.885 669.341,1378.200 666.045 C 1361.582 651.182,1331.825 629.954,1308.000 615.965 C 1290.265 605.552,1274.344 598.232,1263.152 595.346 C 1254.669 593.158,1251.986 592.911,1241.000 593.309 C 1220.723 594.043,1212.411 597.617,1174.772 621.790 C 1112.572 661.735,1083.319 676.195,1052.000 682.473 C 1029.706 686.943,988.818 689.269,971.000 687.082 C 951.876 684.735,949.836 683.748,925.276 664.963 C 903.673 648.439,883.334 637.068,863.529 630.441 C 849.420 625.720,840.454 624.215,819.500 623.050 C 792.726 621.563,773.254 616.572,749.384 605.077 C 737.547 599.377,737.252 599.155,736.552 595.427 C 733.783 580.667,718.663 568.549,700.796 566.769 C 698.154 566.506,698.263 566.296,705.598 557.500 C 734.080 523.344,748.515 486.664,749.739 445.331 C 750.321 425.711,748.826 413.767,743.904 398.705 C 738.502 382.174,726.852 362.814,716.129 352.547 C 713.858 350.373,712.000 348.170,712.000 347.653 C 712.000 347.096,715.123 346.948,719.647 347.290 C 723.852 347.608,732.740 347.430,739.397 346.895 C 770.379 344.404,798.340 334.826,823.514 318.083 C 836.172 309.665,843.738 305.944,870.555 294.952 C 909.912 278.821,919.000 272.540,919.000 261.473 C 919.000 256.728,914.831 252.482,908.513 250.792 C 904.897 249.825,899.449 246.027,884.663 234.163 C 834.667 194.049,795.975 175.620,762.000 175.740 C 734.372 175.838,712.249 187.278,680.990 217.633 C 674.552 223.885,668.984 229.000,668.616 229.000 C 668.249 229.000,668.625 227.692,669.452 226.093 C 672.127 220.920,674.950 208.698,675.340 200.600 L 675.720 192.701 681.671 189.100 C 711.352 171.141,730.740 144.820,736.010 115.330 C 738.023 104.066,736.827 78.847,733.716 66.955 C 724.583 32.045,703.131 0.000,688.893 0.000 C 685.972 0.000,684.624 0.658,682.589 3.077 M603.778 104.046 C 612.527 105.922,632.440 117.625,631.646 120.424 C 631.246 121.836,621.470 124.893,612.119 126.532 C 602.979 128.133,590.000 128.501,590.000 127.159 C 590.000 126.696,590.643 124.180,591.430 121.568 C 592.806 116.996,592.791 116.879,591.042 118.462 C 590.043 119.366,588.084 122.669,586.688 125.803 C 576.677 148.277,584.545 187.059,602.897 205.703 C 615.849 218.861,636.513 221.984,646.748 212.331 C 648.706 210.484,650.083 208.749,649.808 208.475 C 649.534 208.200,647.181 208.917,644.579 210.068 C 638.998 212.537,631.031 213.532,624.585 212.565 C 618.627 211.671,619.470 210.422,626.636 209.526 C 634.264 208.573,650.807 203.843,660.000 199.987 C 671.199 195.290,671.006 195.314,670.965 198.633 C 670.828 209.928,665.340 225.995,658.800 234.253 C 654.600 239.555,645.342 245.475,638.749 247.074 C 618.511 251.981,592.361 243.154,573.660 225.103 C 554.493 206.601,546.795 188.633,546.624 162.000 C 546.528 146.884,547.859 140.353,553.320 129.144 C 556.911 121.775,564.441 113.014,570.460 109.201 C 579.255 103.630,592.375 101.600,603.778 104.046 M254.790 112.915 C 256.830 113.969,260.208 116.597,262.297 118.755 L 266.093 122.680 259.625 125.864 C 248.952 131.118,240.953 141.544,241.018 150.116 C 241.032 151.957,241.727 151.247,244.066 147.000 C 245.733 143.975,248.415 140.138,250.027 138.474 C 253.529 134.859,263.796 128.463,264.679 129.346 C 265.022 129.689,263.693 132.395,261.725 135.360 C 253.669 147.493,244.988 167.807,243.503 178.000 L 242.848 182.500 230.674 182.662 C 220.064 182.803,208.213 184.442,202.823 186.513 C 200.564 187.381,199.484 180.941,199.549 167.000 C 199.636 148.439,205.353 133.645,216.973 121.907 C 225.269 113.528,230.980 111.126,242.790 111.052 C 249.076 111.013,251.977 111.463,254.790 112.915 M786.458 183.528 C 814.697 190.971,842.032 206.254,876.000 233.591 C 897.169 250.627,901.716 253.848,906.341 255.079 C 911.889 256.556,914.000 258.618,914.000 262.562 C 914.000 265.184,913.063 266.657,909.164 270.163 C 903.213 275.513,893.282 280.489,867.910 290.834 C 844.032 300.569,831.001 307.026,819.934 314.606 C 791.473 334.097,747.980 345.534,715.062 342.183 C 704.624 341.120,703.617 340.822,699.696 337.639 C 694.754 333.627,684.504 327.293,676.034 323.017 L 670.000 319.971 669.916 305.736 C 669.869 297.906,669.508 288.913,669.113 285.750 C 668.557 281.303,668.692 280.000,669.708 280.000 C 670.431 280.000,676.755 282.190,683.761 284.867 C 707.830 294.063,725.312 298.253,745.021 299.550 C 764.999 300.864,789.744 296.939,811.721 288.968 C 823.897 284.552,845.370 273.319,858.600 264.445 C 864.704 260.350,870.040 257.000,870.455 257.000 C 870.871 257.000,872.570 258.143,874.231 259.541 C 877.891 262.621,878.665 262.186,876.607 258.207 C 871.626 248.574,848.669 236.509,826.500 231.873 C 817.403 229.971,792.287 230.237,781.500 232.350 C 760.944 236.376,742.058 243.072,710.219 257.622 C 688.909 267.361,672.427 274.000,669.561 274.000 C 667.646 274.000,667.131 273.160,666.038 268.250 C 665.334 265.087,663.438 258.900,661.825 254.500 C 660.212 250.100,658.804 245.989,658.696 245.364 C 658.588 244.739,660.300 242.788,662.500 241.028 C 664.700 239.268,673.429 231.229,681.899 223.164 C 707.641 198.650,719.879 190.105,737.971 184.010 C 752.040 179.270,769.641 179.095,786.458 183.528 M240.611 187.765 C 241.222 188.169,242.043 192.244,242.436 196.821 C 242.829 201.397,243.834 207.472,244.671 210.321 C 248.331 222.778,257.809 236.446,269.167 245.645 C 276.579 251.649,288.834 259.500,289.598 258.735 C 289.890 258.443,288.795 255.705,287.165 252.649 C 283.479 245.742,282.519 239.168,284.001 230.992 C 285.481 222.831,288.040 216.307,289.040 218.144 C 289.446 218.890,290.754 223.426,291.947 228.224 C 293.908 236.108,294.095 239.235,293.898 260.724 C 293.655 287.283,293.904 288.686,300.510 297.881 C 305.799 305.243,308.153 312.141,308.740 322.000 C 309.275 330.972,307.772 339.291,304.286 346.653 C 302.935 349.507,301.527 350.760,298.500 351.799 C 286.176 356.030,279.313 358.876,268.730 364.142 C 256.502 370.228,253.197 370.920,243.788 369.364 L 240.077 368.751 244.422 362.625 C 252.693 350.965,259.294 335.036,262.512 318.975 C 263.335 314.864,264.289 305.200,264.632 297.500 C 265.319 282.043,263.778 270.304,260.050 262.603 C 257.804 257.963,251.934 251.546,249.851 251.453 C 249.108 251.420,245.463 249.912,241.750 248.102 C 228.115 241.455,215.265 241.622,201.051 248.632 C 181.541 258.254,168.567 280.691,167.287 307.023 C 166.453 324.185,170.220 340.071,178.054 352.424 L 180.956 357.000 174.100 357.000 L 167.244 357.000 165.189 351.250 C 159.389 335.020,157.592 323.852,157.666 304.500 C 157.715 291.665,158.131 287.010,159.767 280.969 C 164.390 263.896,176.473 250.244,194.270 241.985 C 201.857 238.464,215.410 234.486,223.510 233.403 L 229.500 232.602 224.000 231.869 C 212.854 230.382,198.657 233.664,186.269 240.592 C 178.747 244.799,167.267 255.284,163.288 261.584 C 161.754 264.011,160.215 265.997,159.867 265.998 C 158.553 266.002,157.949 251.196,158.971 244.000 C 163.427 212.613,184.219 193.119,218.583 188.107 C 226.115 187.008,239.160 186.806,240.611 187.765 M153.140 212.574 C 157.738 213.439,161.848 214.485,162.273 214.897 C 162.698 215.309,161.865 218.313,160.422 221.573 C 156.229 231.041,154.000 241.347,154.000 251.267 C 154.000 259.385,153.838 260.150,152.250 259.522 C 151.287 259.141,147.125 257.895,143.000 256.754 C 131.664 253.618,108.294 253.660,94.053 256.842 C 80.771 259.810,64.019 265.699,55.831 270.278 C 49.374 273.889,39.512 281.846,40.397 282.731 C 40.663 282.997,43.463 281.816,46.618 280.107 C 53.424 276.421,57.258 276.219,66.085 279.079 C 74.361 281.760,83.912 286.969,102.500 298.937 C 127.165 314.818,140.206 321.000,149.041 321.000 C 152.311 321.000,153.035 321.374,153.400 323.250 C 155.822 335.702,156.981 343.352,156.515 343.818 C 156.206 344.128,149.507 344.575,141.628 344.812 C 112.093 345.700,93.316 338.648,70.503 318.099 C 64.642 312.820,57.968 307.064,55.673 305.310 C 48.882 300.117,36.338 297.022,22.000 297.000 C 12.169 296.985,7.632 295.682,6.159 292.450 C -0.902 276.953,23.295 247.298,56.500 230.753 C 73.230 222.417,95.309 215.256,112.500 212.590 C 124.897 210.667,142.972 210.660,153.140 212.574 M831.500 238.965 C 835.350 240.144,839.175 241.271,840.000 241.468 C 843.628 242.339,849.924 245.748,849.246 246.475 C 848.836 246.914,849.175 247.050,850.000 246.776 C 852.593 245.915,863.000 251.863,863.000 254.206 C 863.000 254.699,861.425 255.760,859.500 256.564 C 857.575 257.369,855.997 258.358,855.993 258.763 C 855.989 259.169,854.302 260.625,852.243 262.000 C 850.184 263.375,847.600 265.314,846.500 266.308 C 842.786 269.666,815.579 282.579,804.500 286.242 C 773.987 296.331,744.284 297.593,716.991 289.960 C 702.525 285.914,695.504 283.348,697.131 282.702 C 697.884 282.403,697.196 282.122,695.603 282.079 C 691.689 281.972,680.903 277.965,681.581 276.869 C 681.879 276.387,683.187 276.260,684.489 276.587 C 685.790 276.913,687.675 276.684,688.678 276.076 C 690.183 275.165,689.995 275.087,687.601 275.632 C 685.548 276.099,684.908 275.957,685.410 275.146 C 685.799 274.516,686.610 274.000,687.212 274.000 C 687.814 274.000,691.219 272.624,694.780 270.942 C 698.340 269.259,701.894 268.129,702.678 268.430 C 703.462 268.731,703.870 268.598,703.583 268.135 C 702.882 267.000,707.867 264.799,709.229 265.642 C 709.858 266.030,710.021 265.843,709.620 265.195 C 709.186 264.491,710.696 263.538,713.716 262.610 C 716.347 261.801,718.050 261.090,717.500 261.031 C 716.950 260.971,717.972 260.282,719.771 259.500 C 721.570 258.719,723.820 258.358,724.771 258.699 C 725.722 259.040,726.174 258.959,725.776 258.519 C 724.780 257.418,729.626 254.968,742.533 250.048 C 748.565 247.749,754.563 245.434,755.862 244.904 C 757.492 244.239,758.661 244.304,759.635 245.112 C 760.759 246.045,760.927 245.974,760.463 244.764 C 760.030 243.636,760.862 243.040,763.690 242.450 C 768.311 241.486,768.040 241.554,770.500 240.740 C 773.845 239.634,778.350 238.745,781.250 238.619 C 782.763 238.554,784.000 238.186,784.000 237.802 C 784.000 236.687,793.347 236.222,809.500 236.533 C 821.390 236.762,825.952 237.267,831.500 238.965 M785.813 238.683 C 786.534 238.972,787.397 238.936,787.729 238.604 C 788.061 238.272,787.471 238.036,786.417 238.079 C 785.252 238.127,785.015 238.364,785.813 238.683 M450.500 246.996 C 483.095 258.197,500.728 302.813,487.650 341.000 L 485.424 347.500 472.962 349.244 C 462.454 350.715,450.722 353.262,439.000 356.616 C 436.745 357.262,436.899 356.895,440.579 352.874 C 456.126 335.882,455.873 302.108,440.080 286.315 C 434.549 280.784,429.696 278.593,423.000 278.602 C 403.201 278.628,389.249 306.219,395.540 332.907 C 397.167 339.812,402.037 349.818,405.133 352.620 C 406.979 354.291,406.808 354.417,400.273 356.195 C 396.548 357.209,392.827 358.142,392.004 358.269 C 389.959 358.585,382.717 343.954,380.353 334.730 C 378.939 329.214,378.520 324.062,378.583 313.000 C 378.660 299.556,378.894 297.808,381.802 288.992 C 388.166 269.701,400.492 254.880,415.626 248.323 C 426.364 243.671,439.382 243.175,450.500 246.996 M240.112 253.223 C 244.462 255.379,249.476 258.900,252.306 261.784 C 256.754 266.318,257.216 267.270,258.521 274.591 C 259.296 278.941,259.920 286.325,259.908 291.000 L 259.885 299.500 257.604 294.489 C 248.420 274.306,227.359 275.570,216.523 296.955 C 208.227 313.326,209.744 337.069,219.796 348.196 C 221.750 350.359,224.599 352.775,226.125 353.565 C 229.765 355.447,238.329 355.398,242.050 353.474 C 243.672 352.635,245.000 352.361,245.000 352.864 C 245.000 354.391,236.052 366.043,234.389 366.681 C 233.536 367.008,225.786 365.661,217.169 363.687 C 208.551 361.712,198.477 359.582,194.783 358.952 C 188.170 357.824,188.010 357.722,184.475 352.396 C 180.041 345.716,176.636 338.122,174.356 329.831 C 171.985 321.207,171.955 301.900,174.299 293.000 C 178.177 278.270,188.933 261.913,198.717 255.866 C 207.641 250.351,212.933 248.915,223.112 249.246 C 231.842 249.531,233.402 249.896,240.112 253.223 M138.187 261.787 C 138.854 262.454,140.998 263.007,142.950 263.015 C 145.718 263.027,146.169 263.262,145.000 264.081 C 143.818 264.908,143.967 265.000,145.700 264.514 C 146.910 264.175,149.207 264.573,150.805 265.399 C 153.263 266.670,153.802 267.677,154.307 271.940 C 154.654 274.878,154.411 278.339,153.723 280.239 C 153.003 282.230,152.535 289.827,152.522 299.748 L 152.500 315.996 149.932 315.998 C 141.711 316.004,128.997 309.907,104.887 294.397 C 87.970 283.514,70.375 274.017,67.073 273.985 C 66.208 273.976,64.860 273.564,64.078 273.069 C 63.065 272.428,65.225 271.358,71.578 269.354 C 76.485 267.805,81.063 266.592,81.750 266.658 C 82.438 266.724,83.000 266.325,83.000 265.772 C 83.000 265.219,84.111 264.979,85.470 265.239 C 86.828 265.499,87.742 265.392,87.502 265.003 C 87.261 264.613,90.437 263.553,94.560 262.647 C 103.198 260.749,105.169 260.598,103.000 262.000 C 101.951 262.678,101.885 262.974,102.781 262.985 C 103.486 262.993,104.342 262.273,104.683 261.384 C 105.227 259.967,107.244 259.818,121.139 260.172 C 131.724 260.441,137.377 260.977,138.187 261.787 M128.813 261.683 C 129.534 261.972,130.397 261.936,130.729 261.604 C 131.061 261.272,130.471 261.036,129.417 261.079 C 128.252 261.127,128.015 261.364,128.813 261.683 M719.813 262.683 C 720.534 262.972,721.397 262.936,721.729 262.604 C 722.061 262.272,721.471 262.036,720.417 262.079 C 719.252 262.127,719.015 262.364,719.813 262.683 M706.813 270.683 C 707.534 270.972,708.397 270.936,708.729 270.604 C 709.061 270.272,708.471 270.036,707.417 270.079 C 706.252 270.127,706.015 270.364,706.813 270.683 M662.993 276.750 C 663.629 279.363,664.398 290.950,664.702 302.500 L 665.254 323.500 671.823 326.481 C 688.594 334.093,712.488 353.428,722.512 367.500 C 747.610 402.732,752.308 445.767,736.322 494.000 C 727.016 522.079,711.505 545.783,683.286 575.053 C 658.478 600.783,614.792 637.005,587.596 654.391 L 584.692 656.248 587.919 650.874 C 593.773 641.126,602.168 622.685,606.072 611.000 C 610.987 596.289,613.045 584.341,613.073 570.360 C 613.100 556.759,611.516 549.488,605.301 534.692 C 600.900 524.214,600.597 522.926,600.560 514.500 C 600.477 496.050,608.252 485.166,630.560 472.500 C 649.937 461.498,655.123 451.789,658.067 421.000 C 660.513 395.418,657.757 370.820,649.830 347.500 C 644.911 333.030,644.731 332.111,644.739 321.500 C 644.749 309.248,647.091 297.402,651.482 287.403 C 654.173 281.274,660.003 272.005,661.169 272.002 C 661.537 272.001,662.358 274.137,662.993 276.750 M687.000 278.383 C 687.000 278.594,687.901 279.002,689.001 279.290 C 690.102 279.578,690.751 279.405,690.442 278.907 C 689.904 278.036,687.000 277.594,687.000 278.383 M422.250 297.114 C 426.344 302.045,422.770 310.000,416.461 310.000 C 407.584 310.000,404.838 299.718,412.500 295.167 C 415.206 293.559,420.112 294.538,422.250 297.114 M235.927 298.635 C 237.067 300.084,238.000 301.863,238.000 302.588 C 238.000 305.431,235.603 308.922,232.876 310.051 C 230.512 311.030,229.580 310.955,227.541 309.619 C 224.215 307.439,222.819 304.570,223.590 301.497 C 225.008 295.847,232.388 294.135,235.927 298.635 M220.944 326.176 C 223.433 337.779,230.239 342.919,239.740 340.372 C 241.520 339.895,241.857 339.278,241.379 337.373 C 240.584 334.208,242.674 331.824,245.914 332.200 C 248.206 332.466,248.684 331.946,250.116 327.629 C 251.858 322.379,253.620 322.866,252.451 328.274 C 251.300 333.598,247.355 340.481,243.529 343.840 C 240.003 346.936,238.027 347.544,233.000 347.080 C 225.441 346.382,219.000 337.054,219.000 326.804 C 219.000 323.612,219.188 321.000,219.417 321.000 C 219.647 321.000,220.334 323.329,220.944 326.176 M441.989 337.805 C 440.827 340.505,438.104 344.445,435.939 346.560 C 432.363 350.052,431.419 350.442,425.668 350.808 C 414.956 351.491,407.887 346.131,405.008 335.145 C 403.016 327.544,404.771 326.785,408.134 333.793 C 413.014 343.959,421.036 347.847,429.451 344.125 C 434.478 341.901,434.529 341.821,432.757 338.983 C 430.926 336.050,432.932 333.460,436.890 333.648 C 439.836 333.787,440.098 333.492,441.752 328.148 L 443.500 322.500 443.800 327.697 C 444.009 331.311,443.457 334.391,441.989 337.805 M348.668 353.016 C 357.033 354.374,370.567 358.372,377.439 361.515 L 383.093 364.101 380.392 367.301 C 373.577 375.373,372.182 384.960,376.548 393.721 C 377.950 396.534,379.828 399.435,380.722 400.168 C 382.167 401.352,382.262 401.223,381.579 399.000 C 381.157 397.625,380.335 393.870,379.753 390.656 C 377.729 379.486,383.602 368.796,394.776 363.310 C 400.086 360.703,401.367 360.500,412.500 360.504 C 423.032 360.507,425.405 360.838,431.894 363.204 C 443.476 367.427,454.413 374.523,463.948 384.001 C 473.643 393.637,478.427 401.061,481.210 410.787 C 487.602 433.124,472.619 454.120,451.234 452.792 C 444.288 452.361,443.708 453.273,449.053 456.220 C 454.659 459.311,463.152 458.335,470.923 453.706 C 474.357 451.660,477.550 450.222,478.018 450.511 C 479.446 451.393,484.751 466.132,485.909 472.434 C 495.587 525.079,440.226 592.134,376.500 604.953 C 345.101 611.270,318.433 606.405,272.500 585.983 C 232.525 568.210,221.051 564.914,209.926 568.004 C 206.581 568.933,201.109 573.442,202.111 574.444 C 202.359 574.692,205.612 574.373,209.340 573.735 C 215.101 572.748,217.421 572.842,224.809 574.360 C 229.589 575.343,235.300 576.942,237.500 577.914 L 241.500 579.681 228.000 586.304 C 201.116 599.492,177.830 605.000,148.963 605.000 C 123.139 605.000,104.017 599.152,92.652 587.778 C 79.605 574.723,77.385 556.475,87.121 542.324 L 90.078 538.027 86.968 528.763 C 74.461 491.500,73.817 458.269,85.059 430.193 C 95.188 404.898,116.310 382.922,143.760 369.121 C 162.635 359.631,176.002 359.591,217.000 368.902 C 226.625 371.088,237.576 373.408,241.335 374.056 L 248.171 375.235 244.335 378.290 C 239.343 382.268,230.245 391.674,228.826 394.326 C 228.004 395.861,228.991 395.438,232.607 392.706 C 273.168 362.058,315.398 347.616,348.668 353.016 M132.557 364.119 C 135.001 364.734,137.000 365.522,136.999 365.869 C 136.998 366.216,134.722 367.778,131.940 369.341 C 118.544 376.865,100.716 393.158,92.291 405.577 C 81.613 421.318,75.436 436.693,72.673 454.412 L 71.439 462.325 66.727 456.938 C 59.959 449.202,58.502 445.742,58.706 437.899 C 59.174 419.950,73.708 395.246,94.500 377.058 C 108.189 365.084,120.188 361.004,132.557 364.119 M403.809 377.037 C 400.954 379.892,400.796 380.450,401.171 386.337 C 401.440 390.570,402.506 394.528,404.458 398.550 C 409.776 409.504,427.116 424.431,441.116 430.106 C 448.697 433.180,458.289 433.253,463.078 430.275 C 469.101 426.529,470.371 421.608,467.014 415.028 C 464.053 409.224,462.939 409.118,463.547 414.698 L 464.071 419.500 461.999 414.614 C 453.056 393.526,431.844 379.332,412.250 381.322 C 409.363 381.615,407.000 381.516,407.000 381.102 C 407.000 379.697,411.619 376.000,413.373 376.000 C 414.333 376.000,414.840 375.550,414.500 375.000 C 414.160 374.450,412.299 374.000,410.364 374.000 C 407.779 374.000,406.041 374.805,403.809 377.037 M432.045 390.691 C 444.172 396.460,454.408 408.280,457.532 420.120 C 459.050 425.876,458.547 426.955,454.330 426.985 C 452.608 426.997,451.816 425.962,450.488 421.963 C 445.151 405.895,429.174 394.000,412.930 394.000 C 408.492 394.000,407.977 393.758,407.384 391.393 C 406.435 387.614,408.319 386.848,417.545 387.260 C 423.976 387.548,426.886 388.236,432.045 390.691 M523.364 497.750 C 533.993 579.530,531.801 639.366,516.426 687.144 C 496.831 748.036,452.474 781.930,392.000 782.220 C 358.837 782.379,330.260 772.706,302.415 751.897 C 293.015 744.872,281.000 732.924,281.000 730.601 C 281.000 729.739,279.076 729.049,275.499 728.629 C 252.464 725.922,233.474 707.542,232.212 686.733 C 231.643 677.347,233.364 671.991,238.723 666.473 C 245.529 659.465,259.377 655.193,266.845 657.796 C 270.612 659.109,270.798 658.513,271.632 642.500 C 272.325 629.191,270.982 613.561,267.942 599.547 C 266.874 594.623,266.000 590.272,266.000 589.879 C 266.000 589.271,287.742 598.492,288.904 599.593 C 292.002 602.525,294.236 653.143,292.038 670.601 C 290.656 681.586,288.412 690.000,286.866 690.000 C 285.180 690.000,280.003 686.063,273.118 679.543 C 267.224 673.963,266.871 673.768,268.506 677.000 C 276.890 693.571,302.366 708.232,334.500 714.977 C 348.972 718.015,372.077 718.712,387.328 716.570 C 411.680 713.150,438.139 703.015,454.500 690.839 C 479.414 672.299,496.352 645.453,504.883 610.985 C 509.422 592.647,511.083 577.536,511.078 554.649 C 511.074 539.083,509.709 513.293,508.654 508.851 C 508.432 507.915,520.382 485.036,521.103 485.017 C 521.435 485.007,522.452 490.738,523.364 497.750 M696.544 574.048 C 698.350 576.045,698.341 576.403,696.174 588.165 C 689.571 624.004,668.994 665.588,638.414 704.892 C 618.835 730.057,598.482 746.783,575.643 756.480 C 569.052 759.278,568.684 759.326,566.143 757.709 C 564.690 756.784,560.575 754.567,557.000 752.781 C 551.297 749.933,549.511 749.533,542.437 749.517 C 535.167 749.502,533.658 749.855,527.108 753.106 L 519.843 756.712 514.753 754.106 L 509.663 751.500 506.581 740.042 L 503.499 728.583 510.751 714.042 C 514.740 706.044,518.565 699.181,519.252 698.792 C 519.938 698.402,525.693 695.666,532.040 692.711 C 576.410 672.055,640.916 624.985,682.982 582.569 C 688.747 576.756,693.740 572.000,694.077 572.000 C 694.414 572.000,695.524 572.922,696.544 574.048 M254.775 584.095 C 260.418 586.441,259.968 585.529,263.628 602.000 C 265.725 611.435,266.264 616.932,266.632 632.613 L 267.080 651.726 260.290 652.245 C 251.413 652.924,243.312 656.093,237.601 661.120 L 232.996 665.173 226.248 660.358 C 210.970 649.456,195.091 631.458,187.657 616.619 C 185.646 612.603,184.000 608.878,184.000 608.342 C 184.000 607.805,187.488 606.549,191.750 605.550 C 208.297 601.674,233.383 591.410,243.000 584.583 C 247.322 581.515,248.453 581.468,254.775 584.095 M745.275 608.642 C 754.836 613.461,771.059 619.508,782.097 622.368 C 786.999 623.638,791.217 624.884,791.470 625.137 C 792.267 625.933,758.877 634.908,750.500 636.149 C 742.709 637.303,742.578 637.367,745.500 638.622 C 750.144 640.616,757.649 640.230,767.500 637.491 C 772.450 636.115,781.450 633.593,787.500 631.888 C 796.988 629.213,800.631 628.719,814.000 628.292 L 829.500 627.796 831.431 631.148 C 835.243 637.766,846.807 648.499,864.500 661.841 C 891.664 682.324,899.328 691.134,902.049 705.000 C 902.643 708.025,903.507 721.975,903.970 736.000 C 904.881 763.589,905.832 769.135,910.862 776.194 C 913.695 780.171,920.698 785.026,942.000 797.780 C 977.224 818.871,989.268 829.875,998.295 849.212 C 1004.266 862.005,1011.594 872.481,1022.000 883.100 C 1036.934 898.340,1051.621 906.000,1065.909 906.000 C 1078.459 906.000,1086.715 899.534,1100.152 879.182 C 1106.960 868.869,1109.302 864.830,1127.513 832.000 C 1144.305 801.726,1153.887 788.503,1162.849 783.234 L 1167.500 780.500 1202.000 780.455 C 1234.328 780.412,1236.993 780.272,1244.325 778.226 C 1254.893 775.278,1261.164 771.673,1267.329 764.999 C 1275.881 755.744,1284.649 735.585,1289.212 714.688 C 1291.199 705.588,1291.440 701.616,1291.468 677.500 C 1291.503 647.822,1291.472 648.006,1298.153 638.261 C 1302.439 632.010,1309.946 624.000,1311.520 624.000 C 1312.955 624.000,1343.468 644.193,1353.059 651.489 C 1372.047 665.934,1402.965 695.086,1415.286 710.161 C 1420.002 715.932,1420.986 721.171,1420.994 740.557 C 1421.005 767.147,1414.700 789.218,1402.013 807.000 C 1380.688 836.890,1376.645 845.985,1376.675 864.000 C 1376.699 877.896,1380.050 887.733,1391.465 907.418 C 1402.814 926.988,1406.998 939.025,1407.133 952.500 C 1407.282 967.298,1403.253 976.121,1389.593 990.911 C 1374.301 1007.469,1366.314 1023.821,1365.240 1040.772 C 1364.170 1057.644,1370.218 1068.939,1383.236 1074.383 C 1386.681 1075.823,1401.425 1080.177,1416.000 1084.058 C 1464.750 1097.038,1489.864 1107.043,1500.031 1117.532 L 1503.071 1120.668 1497.785 1127.705 C 1494.878 1131.575,1489.000 1139.064,1484.723 1144.349 C 1455.193 1180.830,1401.824 1262.178,1386.838 1293.548 L 1381.930 1303.824 1385.812 1309.831 C 1397.753 1328.306,1392.133 1343.219,1370.000 1351.788 C 1352.188 1358.685,1332.793 1360.248,1293.361 1357.966 C 1243.646 1355.089,1217.164 1349.129,1207.000 1338.528 C 1203.597 1334.979,1203.502 1334.665,1203.589 1327.189 C 1203.659 1321.064,1204.320 1317.859,1206.840 1311.434 C 1212.783 1296.281,1223.835 1280.199,1238.487 1265.388 C 1250.448 1253.297,1261.115 1245.606,1277.208 1237.473 C 1295.533 1228.211,1305.938 1221.083,1316.561 1210.515 C 1327.229 1199.902,1335.616 1187.594,1344.301 1169.806 C 1349.363 1159.440,1350.899 1157.101,1352.674 1157.056 C 1355.915 1156.973,1365.000 1154.749,1365.000 1154.039 C 1365.000 1153.699,1362.188 1153.314,1358.750 1153.182 C 1332.636 1152.183,1302.923 1139.790,1273.200 1117.500 C 1260.148 1107.712,1235.971 1084.335,1223.558 1069.500 C 1205.519 1047.942,1192.349 1028.037,1181.874 1006.500 C 1173.227 988.721,1169.433 973.772,1166.900 947.500 C 1165.408 932.024,1166.310 887.552,1168.432 872.000 C 1172.475 842.364,1179.826 816.156,1187.511 803.982 C 1188.959 801.688,1189.940 799.607,1189.691 799.358 C 1188.735 798.402,1179.962 809.635,1177.059 815.531 C 1173.206 823.357,1167.766 844.516,1165.111 862.000 C 1161.792 883.858,1160.707 902.502,1161.329 927.000 C 1162.326 966.283,1166.355 985.993,1178.377 1010.398 C 1191.846 1037.739,1212.148 1065.810,1236.750 1091.109 C 1244.037 1098.602,1250.000 1104.967,1250.000 1105.253 C 1250.000 1106.261,1225.350 1121.822,1213.500 1128.295 C 1123.846 1177.265,1003.651 1190.183,872.199 1164.975 C 866.534 1163.889,861.696 1163.000,861.449 1163.000 C 860.278 1163.000,861.427 1160.500,866.572 1151.859 C 869.637 1146.712,874.797 1137.100,878.039 1130.500 C 883.381 1119.626,884.461 1116.247,889.545 1094.500 C 900.997 1045.518,906.445 1012.770,908.593 980.000 C 909.251 969.967,909.453 969.247,913.142 963.803 C 922.823 949.516,934.502 923.797,939.618 905.500 C 941.768 897.806,942.417 893.309,942.431 886.000 C 942.447 877.447,941.001 869.722,939.177 868.618 C 938.805 868.392,938.457 873.224,938.404 879.354 C 938.330 887.925,937.695 892.874,935.658 900.774 C 932.983 911.145,925.865 930.283,921.254 939.500 C 917.393 947.218,910.868 958.201,910.414 957.747 C 910.189 957.523,909.971 956.250,909.930 954.919 C 908.874 921.334,906.230 898.586,901.875 885.604 C 899.673 879.040,893.003 865.664,892.288 866.378 C 892.049 866.617,892.995 870.425,894.390 874.841 C 908.407 919.212,908.270 981.050,893.997 1051.801 C 889.232 1075.421,881.035 1109.905,878.333 1117.694 C 875.006 1127.286,861.501 1151.393,849.351 1169.430 C 843.933 1177.473,837.700 1187.542,835.500 1191.806 C 827.710 1206.904,822.929 1235.567,821.457 1276.000 C 820.739 1295.698,819.248 1303.030,814.883 1308.326 C 811.354 1312.607,802.473 1317.199,793.008 1319.638 C 789.154 1320.631,786.000 1321.793,786.000 1322.221 C 786.000 1323.286,797.789 1323.208,801.587 1322.118 L 804.661 1321.237 804.274 1331.868 C 803.812 1344.519,802.141 1349.807,796.758 1355.647 C 789.485 1363.538,779.200 1368.075,763.000 1370.542 C 731.729 1375.303,686.852 1368.117,664.637 1354.792 C 645.861 1343.528,636.000 1328.431,636.000 1310.946 C 636.000 1304.654,636.269 1303.764,639.160 1300.471 C 642.702 1296.437,648.040 1293.490,658.810 1289.624 C 662.830 1288.181,666.264 1287.000,666.440 1287.000 C 666.617 1287.000,665.504 1290.713,663.966 1295.250 C 661.493 1302.545,658.965 1315.335,660.259 1314.000 C 660.525 1313.725,662.825 1308.550,665.370 1302.500 C 667.915 1296.450,672.704 1286.325,676.012 1280.000 C 679.321 1273.675,690.175 1252.215,700.133 1232.311 L 718.238 1196.122 725.369 1193.978 C 746.879 1187.509,771.383 1170.594,786.357 1151.878 C 794.717 1141.430,798.337 1134.515,800.944 1124.011 C 803.877 1112.191,805.566 1109.837,821.209 1095.761 C 830.541 1087.364,835.001 1080.345,834.999 1074.054 C 834.998 1069.423,830.465 1060.034,824.593 1052.500 C 822.021 1049.200,814.177 1040.425,807.161 1033.000 C 784.878 1009.418,780.125 1002.980,776.880 991.983 C 775.899 988.660,775.549 978.704,775.528 953.500 C 775.504 924.240,775.252 918.533,773.721 912.565 C 768.061 890.495,753.351 876.525,729.360 870.440 C 724.071 869.098,718.437 868.000,716.840 868.000 C 715.185 868.000,713.690 867.357,713.363 866.503 C 712.047 863.075,716.938 833.073,720.536 822.500 C 720.910 821.400,719.819 822.525,718.112 825.000 C 711.303 834.868,709.084 846.535,708.316 876.500 C 706.942 930.064,718.603 999.605,738.965 1059.286 C 744.233 1074.725,751.389 1092.107,756.276 1101.331 C 759.269 1106.981,759.313 1107.245,757.673 1109.831 C 756.743 1111.299,754.298 1115.534,752.241 1119.243 C 750.183 1122.952,748.018 1125.990,747.430 1125.993 C 745.684 1126.004,722.294 1112.300,711.500 1104.943 C 695.711 1094.181,680.691 1081.710,664.816 1066.181 C 652.320 1053.958,631.926 1031.442,631.311 1029.191 C 631.208 1028.811,633.336 1026.813,636.040 1024.751 C 651.816 1012.726,648.503 988.349,628.396 968.500 C 623.939 964.100,619.377 958.700,618.259 956.500 C 615.431 950.938,612.465 940.880,611.034 932.000 C 608.800 918.136,604.957 902.913,601.107 892.670 C 591.658 867.535,581.085 852.424,567.278 844.321 L 563.056 841.843 568.897 836.435 C 574.534 831.216,580.923 821.005,582.341 814.947 C 582.803 812.975,584.256 811.864,588.720 810.071 C 624.145 795.839,660.861 762.681,690.670 718.000 C 705.884 695.196,720.918 665.141,729.187 641.000 C 733.044 629.738,736.997 613.420,736.999 608.750 C 736.999 606.688,737.236 605.000,737.525 605.000 C 737.814 605.000,741.301 606.639,745.275 608.642 M446.927 624.635 C 451.559 630.523,448.387 641.798,438.388 655.000 C 435.680 658.575,429.880 666.675,425.500 673.000 C 421.120 679.325,414.223 687.970,410.173 692.211 C 396.517 706.511,390.500 708.469,362.531 707.714 C 341.507 707.147,329.604 705.167,320.000 700.639 C 309.900 695.878,309.609 695.450,310.277 686.381 C 312.055 662.273,328.814 637.990,350.129 628.641 C 362.123 623.380,377.810 622.139,391.358 625.380 C 401.999 627.926,401.988 627.864,392.888 634.520 C 382.039 642.455,371.853 653.522,367.777 661.802 C 365.079 667.282,364.513 669.572,364.573 674.752 C 364.664 682.587,366.460 685.088,367.416 678.712 C 368.206 673.446,373.621 661.922,377.619 657.000 C 393.381 637.595,420.643 622.375,440.177 622.072 C 444.086 622.012,445.195 622.433,446.927 624.635 M1431.000 709.496 C 1477.136 746.498,1514.100 791.728,1545.009 849.000 C 1557.432 872.019,1566.200 885.828,1577.119 899.570 C 1613.133 944.895,1655.481 967.853,1706.500 969.711 C 1731.155 970.608,1748.130 967.922,1762.418 960.860 C 1766.430 958.877,1768.663 958.263,1769.353 958.953 C 1769.912 959.512,1770.537 962.564,1770.740 965.735 C 1771.405 976.098,1767.041 979.860,1748.000 985.332 C 1733.712 989.439,1721.422 991.163,1702.444 991.723 C 1675.631 992.514,1657.775 989.996,1635.566 982.290 C 1606.969 972.367,1579.731 952.305,1557.522 924.805 C 1550.475 916.080,1533.885 891.431,1518.181 866.355 C 1503.892 843.539,1496.383 833.399,1485.780 822.605 L 1476.059 812.709 1473.459 803.605 C 1463.742 769.576,1441.884 732.312,1412.310 699.354 C 1408.290 694.873,1405.000 690.937,1405.000 690.606 C 1405.000 689.657,1418.425 699.411,1431.000 709.496 M547.500 754.917 C 550.260 755.544,550.095 755.655,545.429 756.310 C 531.109 758.319,521.000 773.082,521.000 791.984 C 521.000 806.660,527.281 819.662,537.620 826.387 C 541.433 828.868,543.631 829.527,549.123 829.837 C 557.966 830.337,562.819 828.044,570.545 819.714 C 573.715 816.296,576.490 814.027,576.711 814.671 C 577.367 816.577,572.189 825.840,567.816 830.584 C 560.777 838.220,559.339 838.711,543.815 838.781 L 530.130 838.842 525.461 835.522 C 503.771 820.102,500.688 783.909,519.422 764.633 C 527.204 756.627,538.226 752.813,547.500 754.917 M553.000 762.000 C 554.049 762.678,552.545 762.953,548.000 762.914 C 543.452 762.876,542.101 762.601,543.500 762.000 C 546.235 760.825,551.181 760.825,553.000 762.000 M564.405 819.106 C 559.030 825.050,549.083 826.663,541.710 822.786 L 537.500 820.572 545.557 819.806 C 549.988 819.384,556.063 818.633,559.057 818.136 C 562.051 817.640,564.907 817.181,565.405 817.117 C 565.903 817.053,565.453 817.948,564.405 819.106 M553.364 843.489 C 571.445 847.320,585.293 862.812,596.509 891.756 C 598.056 895.747,599.120 899.214,598.874 899.460 C 598.628 899.705,595.317 898.778,591.517 897.398 C 562.077 886.713,523.452 885.933,491.004 895.371 C 486.332 896.730,482.389 897.722,482.243 897.576 C 481.625 896.959,489.072 879.984,492.585 874.000 C 494.684 870.425,499.798 864.125,503.950 860.000 C 514.319 849.699,523.333 845.132,537.500 843.002 C 544.958 841.880,545.906 841.909,553.364 843.489 M501.983 898.250 C 501.951 900.563,498.138 914.262,497.315 915.021 C 496.408 915.858,485.731 919.065,485.298 918.631 C 485.146 918.480,486.407 914.228,488.099 909.183 L 491.176 900.009 495.838 898.574 C 501.748 896.755,502.004 896.742,501.983 898.250 M571.500 917.815 C 582.088 920.297,603.775 927.649,605.730 929.418 C 605.856 929.533,607.294 934.910,608.925 941.368 C 610.556 947.826,613.008 955.110,614.375 957.555 C 615.741 960.000,616.513 962.000,616.090 962.000 C 615.666 962.000,611.801 961.100,607.500 960.000 C 599.633 957.988,587.559 957.503,581.500 958.956 C 578.521 959.671,578.517 959.679,581.000 960.243 C 582.375 960.555,588.193 961.336,593.930 961.978 C 612.683 964.078,625.817 969.714,632.249 978.423 C 640.020 988.944,643.770 1003.106,641.005 1011.486 C 638.414 1019.336,628.794 1026.657,609.000 1035.840 C 599.969 1040.029,581.961 1046.354,575.740 1047.521 L 572.000 1048.223 571.978 1040.861 C 571.943 1029.157,565.890 1019.204,556.451 1015.331 C 553.996 1014.324,551.777 1012.825,551.520 1012.000 C 551.051 1010.499,548.000 996.195,548.000 995.501 C 548.000 995.298,549.013 995.287,550.250 995.476 C 551.487 995.665,557.421 996.121,563.435 996.489 C 587.827 997.983,608.194 1003.788,612.592 1010.500 C 615.240 1014.542,613.721 1017.578,606.816 1022.041 C 601.488 1025.484,601.040 1026.000,603.377 1026.000 C 607.097 1026.000,612.498 1023.592,615.490 1020.600 C 619.152 1016.939,618.960 1011.163,615.027 1006.683 C 605.765 996.135,569.850 989.966,525.618 991.327 C 497.348 992.196,482.940 995.351,471.251 1003.230 C 459.970 1010.835,461.997 1023.271,475.132 1027.038 C 477.735 1027.785,477.548 1027.430,472.993 1022.993 C 466.722 1016.885,466.375 1013.691,471.436 1008.631 C 478.145 1001.921,495.728 997.169,520.202 995.451 C 529.828 994.775,529.908 994.788,530.451 997.135 C 533.072 1008.460,533.973 1012.659,533.985 1013.605 C 533.993 1014.213,531.957 1016.001,529.460 1017.580 C 524.312 1020.834,519.729 1027.382,517.985 1033.975 C 516.741 1038.679,517.335 1046.889,519.168 1050.313 C 520.185 1052.214,519.972 1052.256,512.892 1051.558 C 502.285 1050.513,484.932 1045.846,474.128 1041.132 C 461.481 1035.615,446.386 1025.458,442.228 1019.668 C 434.531 1008.949,435.876 995.301,446.102 980.370 C 451.412 972.617,467.579 964.434,486.500 959.921 L 494.500 958.013 485.500 958.388 C 479.774 958.627,474.184 959.552,470.133 960.931 C 466.632 962.124,463.605 962.938,463.407 962.740 C 463.209 962.543,463.979 959.933,465.117 956.940 C 466.256 953.948,468.674 946.325,470.491 940.000 L 473.794 928.500 481.823 925.234 C 490.813 921.578,502.543 918.414,514.500 916.420 C 527.091 914.321,560.037 915.127,571.500 917.815 M545.549 1005.540 C 546.689 1011.062,547.923 1016.066,548.290 1016.661 C 548.658 1017.255,550.205 1017.992,551.729 1018.297 C 556.699 1019.293,562.970 1024.738,565.564 1030.310 C 576.604 1054.021,546.787 1075.497,528.358 1057.108 C 519.083 1047.854,518.957 1033.278,528.074 1024.161 C 530.325 1021.911,533.703 1019.513,535.583 1018.834 C 537.462 1018.154,538.990 1017.126,538.978 1016.549 C 538.966 1015.972,538.066 1011.473,536.978 1006.551 C 534.304 994.451,534.228 994.829,539.238 995.193 L 543.476 995.500 545.549 1005.540 M691.345 1096.285 C 701.362 1104.006,715.937 1114.092,726.225 1120.423 L 733.951 1125.176 731.859 1129.276 C 728.929 1135.020,724.382 1153.676,722.499 1167.683 L 720.910 1179.500 696.573 1228.500 C 683.187 1255.450,671.314 1278.329,670.188 1279.341 C 669.062 1280.354,663.336 1282.927,657.465 1285.058 C 651.593 1287.190,644.873 1290.056,642.532 1291.428 C 636.785 1294.797,632.245 1300.180,631.413 1304.612 L 630.727 1308.266 621.812 1307.593 C 573.633 1303.956,539.980 1284.236,534.110 1256.201 C 530.711 1239.970,534.785 1233.885,553.615 1227.072 C 563.486 1223.500,564.479 1223.367,563.481 1225.750 C 560.827 1232.083,558.006 1242.728,558.038 1246.288 L 558.076 1250.500 561.043 1242.929 C 562.675 1238.764,575.650 1212.269,589.878 1184.049 L 615.746 1132.742 625.123 1129.597 C 642.744 1123.689,660.498 1112.447,674.444 1098.367 C 678.875 1093.894,682.655 1090.181,682.845 1090.117 C 683.035 1090.053,686.860 1092.828,691.345 1096.285 M1276.250 1126.372 C 1281.881 1130.518,1283.997 1132.683,1283.988 1134.289 C 1283.971 1137.535,1281.571 1145.998,1279.574 1149.859 L 1277.836 1153.217 1275.168 1150.672 C 1270.644 1146.357,1262.919 1144.735,1257.500 1146.963 L 1255.500 1147.785 1257.500 1148.424 C 1264.586 1150.685,1272.780 1155.981,1276.271 1160.557 C 1283.661 1170.243,1284.571 1181.660,1278.152 1184.155 C 1273.560 1185.940,1263.238 1184.258,1255.500 1180.464 C 1247.888 1176.731,1243.322 1172.994,1239.320 1167.217 L 1236.744 1163.500 1237.286 1167.822 C 1238.021 1173.675,1241.840 1179.105,1248.051 1183.130 L 1253.219 1186.478 1249.005 1190.217 C 1230.775 1206.395,1204.808 1216.482,1178.250 1217.700 C 1170.963 1218.035,1165.000 1217.992,1165.000 1217.605 C 1165.000 1217.217,1165.755 1215.461,1166.678 1213.700 C 1170.707 1206.016,1169.516 1194.241,1164.011 1187.318 L 1161.770 1184.500 1162.635 1189.000 C 1163.111 1191.475,1163.481 1196.270,1163.457 1199.655 C 1163.373 1211.525,1155.116 1222.370,1145.143 1223.708 C 1140.120 1224.381,1137.659 1222.620,1134.849 1216.343 C 1130.110 1205.754,1131.928 1191.837,1138.970 1184.795 C 1141.057 1182.708,1142.285 1181.000,1141.698 1181.000 C 1138.928 1181.000,1131.875 1185.475,1130.160 1188.321 C 1127.435 1192.843,1125.694 1201.229,1126.496 1205.974 C 1127.307 1210.779,1128.181 1210.935,1112.500 1203.482 C 1099.791 1197.443,1093.961 1193.450,1085.250 1184.818 C 1079.270 1178.893,1077.967 1177.000,1079.870 1177.000 C 1083.175 1177.000,1107.283 1172.247,1121.000 1168.890 C 1168.550 1157.256,1214.954 1137.178,1247.471 1114.166 L 1254.443 1109.233 1261.471 1114.950 C 1265.337 1118.094,1271.987 1123.234,1276.250 1126.372 M745.000 1131.507 C 745.000 1132.132,741.154 1140.036,736.453 1149.072 C 728.026 1165.270,727.915 1165.423,728.570 1160.000 C 729.524 1152.089,732.576 1140.471,735.579 1133.308 L 738.176 1127.116 741.588 1128.743 C 743.465 1129.638,745.000 1130.882,745.000 1131.507 M1325.000 1151.274 C 1329.675 1152.750,1335.750 1154.478,1338.500 1155.115 C 1341.250 1155.751,1343.879 1156.612,1344.342 1157.027 C 1345.599 1158.156,1332.823 1182.587,1325.845 1192.397 C 1318.561 1202.638,1306.184 1214.756,1296.342 1221.284 C 1292.405 1223.895,1283.405 1229.018,1276.342 1232.667 C 1263.986 1239.052,1249.818 1247.867,1248.510 1249.984 C 1248.165 1250.543,1247.394 1251.000,1246.797 1251.000 C 1245.560 1251.000,1246.399 1238.955,1248.068 1232.750 C 1248.964 1229.421,1249.438 1228.995,1252.289 1228.952 C 1254.055 1228.926,1257.035 1228.138,1258.912 1227.202 C 1267.991 1222.672,1269.854 1211.999,1263.862 1198.837 C 1262.590 1196.043,1261.977 1193.229,1262.331 1191.816 C 1262.898 1189.558,1263.240 1189.473,1270.343 1189.832 C 1279.570 1190.298,1284.074 1188.471,1286.547 1183.260 C 1288.908 1178.284,1288.034 1169.670,1284.511 1163.197 C 1281.995 1158.575,1281.916 1158.063,1283.305 1155.376 C 1284.123 1153.794,1285.776 1149.125,1286.979 1145.000 C 1288.182 1140.875,1289.325 1136.978,1289.518 1136.339 C 1289.734 1135.626,1295.004 1137.764,1303.185 1141.885 C 1310.508 1145.574,1320.325 1149.799,1325.000 1151.274 M1258.631 1200.258 C 1260.126 1203.208,1261.447 1207.837,1261.751 1211.188 C 1262.266 1216.871,1262.195 1217.080,1258.568 1220.501 C 1255.273 1223.608,1254.254 1224.000,1249.466 1224.000 C 1242.500 1224.000,1234.618 1220.993,1229.179 1216.260 L 1224.857 1212.500 1233.842 1207.724 C 1238.783 1205.098,1245.403 1200.947,1248.552 1198.502 C 1251.702 1196.056,1254.675 1194.299,1255.159 1194.598 C 1255.642 1194.897,1257.205 1197.444,1258.631 1200.258 M1100.054 1203.535 C 1103.945 1206.029,1110.362 1209.577,1114.314 1211.420 L 1121.500 1214.770 1116.708 1219.294 C 1108.465 1227.079,1098.672 1230.335,1090.293 1228.079 C 1082.833 1226.070,1080.256 1220.111,1083.494 1212.360 C 1084.900 1208.996,1091.694 1199.000,1092.575 1199.000 C 1092.797 1199.000,1096.163 1201.041,1100.054 1203.535 M1223.821 1218.845 C 1229.927 1223.863,1234.515 1226.516,1239.766 1228.066 C 1242.948 1229.006,1243.901 1229.735,1243.520 1230.938 C 1242.361 1234.589,1241.092 1248.209,1241.650 1251.000 C 1242.186 1253.682,1241.513 1254.780,1235.368 1261.252 C 1221.242 1276.129,1208.819 1293.626,1204.062 1305.347 L 1201.817 1310.877 1192.159 1312.980 C 1186.846 1314.136,1180.700 1315.554,1178.500 1316.132 C 1172.295 1317.760,1132.691 1318.421,1121.369 1317.086 C 1095.634 1314.051,1077.506 1307.712,1071.581 1299.677 C 1068.388 1295.345,1068.669 1284.337,1072.164 1276.845 C 1076.957 1266.571,1086.353 1259.576,1095.092 1259.775 C 1099.446 1259.874,1099.778 1259.686,1101.425 1256.190 C 1104.378 1249.918,1117.585 1230.826,1123.517 1224.253 L 1129.155 1218.006 1132.327 1222.753 C 1137.731 1230.839,1146.005 1231.879,1155.212 1225.631 C 1158.482 1223.412,1159.619 1223.262,1173.599 1223.219 C 1189.351 1223.169,1198.362 1221.812,1211.418 1217.523 C 1215.313 1216.244,1218.644 1215.153,1218.821 1215.099 C 1218.997 1215.044,1221.247 1216.730,1223.821 1218.845 " stroke="none" fill="black" fill-rule="evenodd"/></svg>