<?xml version="1.0" standalone="no"?>
<!DOCTYPE svg PUBLIC "-//W3C//DTD SVG 20010904//EN"
 "http://www.w3.org/TR/2001/REC-SVG-20010904/DTD/svg10.dtd">
<svg version="1.0" xmlns="http://www.w3.org/2000/svg"
 width="124.000000pt" height="51.000000pt" viewBox="0 0 124.000000 51.000000"
 preserveAspectRatio="xMidYMid meet">
<metadata>
Created by potrace 1.15, written by Peter Selinger 2001-2017
</metadata>
<g transform="translate(0.000000,51.000000) scale(0.100000,-0.100000)"
fill="#000000" stroke="none">
<path d="M291 438 c-76 -46 -104 -99 -99 -189 4 -78 35 -134 98 -175 73 -48
194 -40 245 16 17 19 17 20 -9 30 -27 10 -43 9 -124 -12 -36 -9 -45 -8 -62 7
-28 26 -25 50 20 135 22 41 40 79 40 85 0 6 -12 18 -27 27 -25 15 -26 18 -10
24 10 3 37 0 60 -9 23 -8 60 -18 82 -22 22 -3 48 -8 58 -11 24 -7 22 17 -4 50
-30 38 -94 67 -158 73 -50 4 -62 1 -110 -29z"/>
<path d="M459 255 c-16 -35 -29 -69 -29 -75 0 -15 17 -12 24 5 3 9 18 15 36
15 18 0 29 4 25 10 -3 6 -15 10 -25 10 -16 0 -17 3 -7 30 15 38 22 38 36 -2
16 -45 40 -80 51 -73 12 7 -56 145 -71 145 -6 0 -23 -29 -40 -65z"/>
<path d="M590 245 c0 -43 4 -75 10 -75 6 0 10 14 10 30 0 28 3 30 35 30 32 0
35 -2 35 -30 0 -16 5 -30 10 -30 6 0 10 32 10 75 0 60 -3 75 -15 75 -10 0 -15
-10 -15 -30 0 -27 -3 -30 -30 -30 -27 0 -30 3 -30 30 0 17 -4 30 -10 30 -6 0
-10 -32 -10 -75z"/>
<path d="M710 268 c0 -29 3 -63 6 -75 11 -41 24 -24 24 30 l0 52 22 -34 22
-34 21 28 22 27 6 -24 c4 -12 7 -33 7 -45 0 -13 5 -23 10 -23 6 0 10 32 10 75
0 87 -14 98 -50 40 -12 -19 -23 -35 -25 -35 -2 0 -13 16 -25 35 -32 52 -50 46
-50 -17z"/>
<path d="M886 307 c-26 -19 -13 -50 30 -70 44 -21 40 -43 -7 -40 -32 3 -33 2
-15 -12 37 -28 76 -15 76 25 0 22 -7 31 -36 45 -40 19 -40 41 0 38 17 -1 26 2
23 10 -5 17 -49 20 -71 4z"/>
</g>
</svg>
